<mxfile host="app.diagrams.net" modified="2023-07-01T10:33:55.128Z" agent="Mozilla/5.0 (Windows NT 10.0; Win64; x64) AppleWebKit/537.36 (KHTML, like Gecko) Chrome/114.0.0.0 Safari/537.36" etag="0-WPdZNLsOYw6hr2fd1Q" version="21.5.2" type="github">
  <diagram name="第 1 页" id="dDo7d_oBEzdm0wVbjqGP">
    <mxGraphModel dx="2074" dy="1193" grid="1" gridSize="10" guides="1" tooltips="1" connect="1" arrows="1" fold="1" page="1" pageScale="1" pageWidth="827" pageHeight="1169" math="0" shadow="0">
      <root>
        <mxCell id="0" />
        <mxCell id="1" parent="0" />
        <mxCell id="SvOumBzC0qhVi1Ix2pH6-1" value="111" style="rounded=0;whiteSpace=wrap;html=1;" vertex="1" parent="1">
          <mxGeometry x="350" y="580" width="120" height="60" as="geometry" />
        </mxCell>
      </root>
    </mxGraphModel>
  </diagram>
</mxfile>
